PathFileType	4	(X/Y/Z)	Walk1_0-155.trc
DataRate	CameraRate	NumFrames	NumMarkers	Units	OrigDataRate	OrigDataStartFrame	OrigNumFrames
30	30	5	22	m	30	96	155
Frame#	Time	Hip			RHip			RKnee			RAnkle			RBigToe			RSmallToe			RHeel			LHip			LKnee			LAnkle			LBigToe			LSmallToe			LHeel			Neck			Head			Nose			RShoulder			RElbow			RWrist			LShoulder			LElbow			LWrist		
		X1	Y1	Z1	X2	Y2	Z2	X3	Y3	Z3	X4	Y4	Z4	X5	Y5	Z5	X6	Y6	Z6	X7	Y7	Z7	X8	Y8	Z8	X9	Y9	Z9	X10	Y10	Z10	X11	Y11	Z11	X12	Y12	Z12	X13	Y13	Z13	X14	Y14	Z14	X15	Y15	Z15	X16	Y16	Z16	X17	Y17	Z17	X18	Y18	Z18	X19	Y19	Z19	X20	Y20	Z20	X21	Y21	Z21	X22	Y22	Z22
97	3.2333333333333334	0.13165381620794278	0.9088333126263606	0.3426547349464337	0.13764052010117747	0.8866119125763685	0.45339767381644974	0.2942668424055025	0.5608939297057046	0.46421926188212	-0.011113388220959825	0.2918836422714705	0.42591674992322176	0.060410048319991444	0.07983471172251204	0.44858878338630903	-0.0006909840917109014	0.10254074780166711	0.4760945262527653	-0.09795068899596429	0.26509101032046234	0.40444042935646857	0.12638127676328123	0.8901998437624743	0.22682501945466324	0.15818905128961067	0.5108755920921928	0.2529953166201972	0.1169005175172662	0.11696602957582417	0.2797389610836452	0.32677017243268897	0.04715414529859287	0.2963388881448487	0.287305825260996	0.039494154004058785	0.2336460041107194	0.06327731213477686	0.03755354920794862	0.281106271130048	0.05998662032036556	1.5935956480864972	0.32675134698399844	0.1318998879182478	1.8387764606571362	0.3447139485665036	0.23194455202123518	1.6883105990760687	0.3251234047823429	0.02076706071759309	1.4651617804885033	0.5161759618071009	0.05908615530522915	1.1594707294928406	0.5655287651294598	0.11043513306135332	0.909229479967931	0.6091507847394855	0.07418072927410174	1.4672433929446096	0.16354882903709345	0.13876246035704118	1.1638395419110585	0.08832252332356122	0.2331921475248788	0.9164998664376038	0.07480286676446592
98	3.2666666666666666	0.1658074596368687	0.9125746090421649	0.3420671225392305	0.17412688341292457	0.889497691641983	0.45520827342490566	0.3556337704223818	0.5722899204785143	0.4622211851746015	0.09931435284615069	0.26945511060086474	0.4305972058133318	0.2057435910660316	0.08714012073635195	0.4522401642806034	0.14877653446906305	0.10047337795191191	0.48071386807365685	0.01985789311379497	0.22659086909635998	0.40961386158713337	0.1556653458712663	0.8911509571300975	0.22692775853039743	0.16517065649157203	0.5089184553349748	0.2513701604857573	0.11814263143424368	0.11713993700579767	0.280322801033392	0.32452583906579446	0.04741977928496731	0.2955771606061628	0.28675884550880176	0.03994290888843752	0.23268007625267467	0.06760574539416227	0.037636307029804084	0.2809320113492773	0.10097260315989104	1.5986782638748953	0.3272973366103147	0.17649664300101536	1.8434214375826015	0.34836708712712566	0.2857431804058514	1.6891702995463542	0.3214642818333564	0.058218014238128286	1.4703583691626505	0.5170504581163105	0.0787425733652921	1.1651556669921248	0.5667505753325222	0.11443034116829948	0.9123777835646124	0.6138107606716022	0.11577670315762466	1.4741549351172232	0.1647359545247356	0.19245866317664584	1.172473700173208	0.08636352065265246	0.31055881589676504	0.9314536373701953	0.08059233262953636
99	3.3	0.20091631848399027	0.9140008440370229	0.3428074731557772	0.21124742805290117	0.8899843277655863	0.45711376017651917	0.40575410206802576	0.576017640805917	0.4595757415662093	0.21352944298265447	0.24162614916321828	0.4353988901177381	0.3545884836607583	0.09291835647615734	0.45404387720518924	0.3030740007749821	0.09593650206451	0.4852913629379763	0.14442388004533324	0.1834032054073567	0.41697733653960056	0.1857473409860983	0.8901119997609548	0.22814926992736992	0.17393841016733433	0.5071410052709656	0.25155171399222565	0.12035155569190847	0.1175068742501976	0.28106798956239654	0.3227550605327554	0.04686021052816653	0.29487661856241176	0.2877904107016452	0.040560525434576236	0.23158744958641328	0.07127183870722703	0.03715540198455705	0.2813049200016331	0.1424578070934118	1.6012150985603948	0.3281628830707971	0.22182146493354624	1.8466108725971653	0.35353718664360145	0.3406146649027973	1.6868181797620287	0.3179945313465632	0.09661961480190615	1.4730810271841106	0.5182552054974858	0.0984192843161464	1.169351083396688	0.5691196672854626	0.12259852095668082	0.9152542055348715	0.6181622508980992	0.15886288397585224	1.479301000672371	0.1671269032347918	0.24257354466634484	1.1795950022501036	0.084429654000175	0.38412497546929986	0.9474693694171152	0.08741075328909771
100	3.333333333333333	0.2378025538551043	0.9131141805794248	0.3448963523813533	0.25000396100644273	0.8881453984746435	0.4590740185584606	0.44697461198746946	0.571976875194898	0.45720302000606017	0.3289260642527059	0.21350185217228232	0.4406339963779605	0.49742806933234646	0.09873179916196399	0.4551129108455915	0.45220991296635893	0.09262087393181057	0.4898922553831427	0.27205991990248796	0.14286308079495258	0.4259752981532441	0.2177981018853202	0.8875094341071159	0.23059662896306066	0.18579778176927733	0.5053429403279316	0.25296305857989637	0.12277235220126162	0.11794389592434688	0.282078126885824	0.3221790835787518	0.04581298460621667	0.2938428045430264	0.28970039449863655	0.04118487324913575	0.230499180148456	0.07288498863300749	0.036134566951914596	0.2826108041315567	0.18477275553202083	1.6011284248534239	0.3294456559046851	0.2669896173374259	1.8479126042629757	0.3586146862460197	0.3943360561121854	1.6820344849241302	0.3155614376795397	0.13636123220940993	1.4729932805857555	0.5196585939309962	0.11994009201130164	1.1716681454167772	0.5718604774970246	0.13514022030649736	0.9168608323197094	0.6221897908460483	0.20324824991064236	1.4822380097330163	0.17043817415910675	0.2900419125114926	1.1850809543590406	0.08298978365494177	0.45321578839919424	0.9634607707154733	0.09466847501291735
101	3.3666666666666667	0.27653177746440105	0.9100807497752229	0.34811659834923836	0.290482706130618	0.8843895929543031	0.46135242497226653	0.481336450455646	0.5621761202656617	0.4557365547749003	0.4414506446094071	0.18927862366569337	0.44621722877578385	0.6264543129674591	0.10635068205183897	0.4567266564297698	0.5880463640431002	0.09296685921878238	0.49436848444219544	0.3973259571016162	0.11014050046511509	0.4354098253507249	0.25244916407800755	0.8836447930028	0.23421711479396976	0.20128863964023955	0.5035863868703003	0.25524760968084004	0.1245450766929666	0.1182202671414762	0.2835599183849703	0.32355657617078926	0.044778383072752344	0.29236490082451805	0.2910739624335611	0.04164625126479657	0.2300929760693855	0.07179366852974102	0.035118252327529624	0.28456360540944553	0.22830045025722037	1.5984916505931268	0.3315795304880821	0.311500528098851	1.847000319080992	0.3629192137482392	0.44516424796059184	1.6758419988076751	0.31509839939321976	0.17768524952385842	1.470226651776535	0.5212883133799633	0.1448511362606211	1.1718395747992807	0.5744275660344774	0.1519864319030467	0.9164701485009462	0.6260154187773402	0.2483033930338366	1.4826204751465604	0.17416756150615198	0.33576891668518755	1.1886525014246776	0.08269541480124336	0.5172203978235665	0.9777122250432456	0.10170407351423053
